<?xml version="1.0" standalone="no"?>
<!DOCTYPE svg PUBLIC "-//W3C//DTD SVG 20010904//EN"
    "http://www.w3.org/TR/2001/REC-SVG-20010904/DTD/svg10.dtd">
<svg version="1.0" xmlns="http://www.w3.org/2000/svg"
     width="500.000000pt" height="500.000000pt" viewBox="0 0 500.000000 500.000000"
     preserveAspectRatio="xMidYMid meet">
    <metadata>
        Created by potrace 1.11, written by Peter Selinger 2001-2013
    </metadata>
    <g transform="translate(0.000000,500.000000) scale(0.100000,-0.100000)"
       fill="#000000" stroke="none">
        <path d="M3960 4218 c-25 -9 -125 -101 -365 -340 l-329 -328 -842 0 c-902 0
-915 -1 -1074 -52 -82 -26 -257 -112 -280 -138 -3 -3 -25 -21 -50 -41 -215
-174 -344 -403 -387 -689 -5 -39 -5 -242 1 -270 3 -14 9 -41 12 -60 20 -117
85 -271 161 -389 59 -89 217 -240 313 -300 47 -28 95 -54 108 -58 13 -3 22 -9
20 -14 -2 -4 -103 -109 -226 -232 -136 -138 -228 -239 -237 -261 -63 -150 65
-301 225 -266 54 12 58 15 385 341 l330 328 875 3 875 4 98 26 c292 80 526
264 671 529 38 69 81 183 91 239 3 19 8 36 10 40 10 16 19 137 18 235 -1 111
-28 260 -59 334 -62 148 -143 279 -223 364 -55 58 -170 146 -253 194 l-86 50
228 228 c246 247 263 271 253 360 -14 122 -142 202 -263 163z m-1740 -1712
l-652 -653 -38 8 c-196 44 -373 191 -454 377 -15 34 -30 72 -32 85 -42 174
-23 350 53 487 77 138 204 251 343 303 109 42 150 44 804 45 l629 0 -653 -652z
m1288 624 c163 -51 317 -181 390 -330 55 -110 74 -185 74 -290 0 -97 -5 -132
-32 -214 -69 -209 -255 -381 -467 -433 -59 -14 -150 -16 -706 -17 -381 -1
-636 2 -634 8 2 5 293 298 647 652 544 543 648 643 668 639 13 -2 40 -9 60
-15z"/>
    </g>
</svg>
