<svg xmlns="http://www.w3.org/2000/svg" xml:space="preserve" viewBox="0 0 500 500">
  <g id="logo">
    <path fill="#fafafa" d="M416.8 82.8c-7.7-7.7-20.1-7.7-27.8 0l-72.5 72.5 27.8 27.8 72.5-72.5c7.7-7.7 7.7-20.2 0-27.8zM148.023 323.723 271.766 199.98l27.789 27.79-123.743 123.742zM82.5 389.3c-7.7 7.7-7.7 20.1 0 27.8 7.7 7.7 20.1 7.7 27.8 0l20.8-20.8-27.8-27.8-20.8 20.8z"/>
    <path fill="#fafafa" d="m271.779 200.009 44.688-44.689 27.79 27.79-44.69 44.688z"/>
    <path fill="#fafafa" d="m271.8 200 27.8 27.8 44.7-44.7-27.8-27.8z"/>
    <path fill="#fafafa" d="m103.25 368.455 44.69-44.689 27.788 27.79-44.688 44.688z"/>
    <path fill="#fafafa" d="m103.3 368.4 27.8 27.8 44.7-44.7-27.8-27.8z"/>
    <path fill="#fafafa" d="M331.7 354.9H167.6c-57.9 0-105-47.1-105-105s47.1-105 105-105h164.1c57.9 0 105 47.1 105 105s-47.1 105-105 105zM167.6 184.2c-36.2 0-65.7 29.5-65.7 65.7s29.5 65.7 65.7 65.7h164.1c36.2 0 65.7-29.5 65.7-65.7s-29.5-65.7-65.7-65.7H167.6z"/>
  </g>
</svg>